<svg xmlns="http://www.w3.org/2000/svg" width="1200" height="92" viewBox="0 0 1200 92" role="img" aria-label="Architecture at a glance">
  <defs>
    <linearGradient id="bg" x1="0" y1="0" x2="1" y2="1">
      <stop offset="0" stop-color="#070B14"/>
      <stop offset="55%" stop-color="#0B1220"/>
      <stop offset="100%" stop-color="#10182A"/>
    </linearGradient>
    <linearGradient id="sheen" x1="0" y1="0" x2="1" y2="0">
      <stop offset="0" stop-color="#CBD5E1" stop-opacity="0.07"/>
      <stop offset="48%" stop-color="#CBD5E1" stop-opacity="0"/>
      <stop offset="100%" stop-color="#3B82F6" stop-opacity="0.04"/>
    </linearGradient>
    <pattern id="uv" width="8" height="8" patternUnits="userSpaceOnUse" patternTransform="rotate(45)">
      <rect width="8" height="8" fill="#E5E7EB"/>
      <path d="M0 0V8" stroke="#64748B" stroke-width="3"/>
    </pattern>
  </defs>
  <rect x="1" y="1" width="1198" height="90" rx="12" fill="url(#bg)" stroke="#1E293B"/>
  <rect x="2" y="2" width="1196" height="88" rx="11" fill="url(#sheen)"/>
  <text x="34" y="57" fill="#F8FAFC" font-family="ui-sans-serif, system-ui, Segoe UI, Helvetica, Arial" font-size="29" font-weight="650">Architecture at a glance</text>
  <g font-family="ui-sans-serif, system-ui, Segoe UI, Helvetica, Arial" font-size="13" font-weight="700" text-anchor="middle">
    <rect x="955" y="34" width="34" height="24" rx="5" fill="#EF4444"/><text x="972" y="51" fill="#070B14">R</text>
    <rect x="996" y="34" width="34" height="24" rx="5" fill="#22C55E"/><text x="1013" y="51" fill="#070B14">G</text>
    <rect x="1037" y="34" width="34" height="24" rx="5" fill="#3B82F6"/><text x="1054" y="51" fill="#F8FAFC">B</text>
    <rect x="1078" y="34" width="34" height="24" rx="5" fill="#8B5CF6"/><text x="1095" y="51" fill="#F8FAFC">V</text>
    <rect x="1119" y="34" width="54" height="24" rx="5" fill="url(#uv)" stroke="#CBD5E1"/><text x="1146" y="51" fill="#070B14">UV</text>
  </g>
</svg>
